<svg version="1.1" viewBox="0.0 0.0 720.0 540.0" fill="none" stroke="none" stroke-linecap="square" stroke-miterlimit="10" xmlns:xlink="http://www.w3.org/1999/xlink" xmlns="http://www.w3.org/2000/svg"><clipPath id="p.0"><path d="m0 0l720.0 0l0 540.0l-720.0 0l0 -540.0z" clip-rule="nonzero"/></clipPath><g clip-path="url(#p.0)"><path fill="#000000" fill-opacity="0.0" d="m0 0l720.0 0l0 540.0l-720.0 0z" fill-rule="evenodd"/><path fill="#000000" d="m72.0 270.0l0 0c0 -149.11688 128.94199 -270.0 288.0 -270.0l0 0c159.05798 -6.9849196E-14 288.0 120.88312 288.0 270.0l0 0c0 149.11688 -128.94202 270.0 -288.0 270.0l0 0c-159.05801 0 -288.0 -120.88312 -288.0 -270.0z" fill-rule="evenodd"/><path stroke="#000000" stroke-width="1.0" stroke-linejoin="round" stroke-linecap="butt" d="m72.0 270.0l0 0c0 -149.11688 128.94199 -270.0 288.0 -270.0l0 0c159.05798 -6.9849196E-14 288.0 120.88312 288.0 270.0l0 0c0 149.11688 -128.94202 270.0 -288.0 270.0l0 0c-159.05801 0 -288.0 -120.88312 -288.0 -270.0z" fill-rule="evenodd"/><path fill="#ffffff" d="m314.75354 86.18291l0 0c0 -24.04831 20.397491 -43.543312 45.55905 -43.543312l0 0c12.083008 0 23.671143 4.5875854 32.21512 12.75354c8.543976 8.165955 13.343933 19.241364 13.343933 30.789772l0 0c0 24.048302 -20.39746 43.543304 -45.55905 43.543304l0 0c-25.16156 0 -45.55905 -19.495003 -45.55905 -43.543304z" fill-rule="evenodd"/><path stroke="#ffffff" stroke-width="1.0" stroke-linejoin="round" stroke-linecap="butt" d="m314.75354 86.18291l0 0c0 -24.04831 20.397491 -43.543312 45.55905 -43.543312l0 0c12.083008 0 23.671143 4.5875854 32.21512 12.75354c8.543976 8.165955 13.343933 19.241364 13.343933 30.789772l0 0c0 24.048302 -20.39746 43.543304 -45.55905 43.543304l0 0c-25.16156 0 -45.55905 -19.495003 -45.55905 -43.543304z" fill-rule="evenodd"/><path fill="#ffffff" d="m241.72414 238.49545l0 0c0 -60.099014 53.563675 -108.81889 119.6378 -108.81889l0 0c66.07413 0 119.63779 48.71988 119.63779 108.81889l0 0c0 60.09903 -53.56366 108.81891 -119.63779 108.81891l0 0c-66.07413 0 -119.6378 -48.71988 -119.6378 -108.81891z" fill-rule="evenodd"/><path stroke="#ffffff" stroke-width="1.0" stroke-linejoin="round" stroke-linecap="butt" d="m241.72414 238.49545l0 0c0 -60.099014 53.563675 -108.81889 119.6378 -108.81889l0 0c66.07413 0 119.63779 48.71988 119.63779 108.81889l0 0c0 60.09903 -53.56366 108.81891 -119.63779 108.81891l0 0c-66.07413 0 -119.6378 -48.71988 -119.6378 -108.81891z" fill-rule="evenodd"/><path fill="#ffffff" d="m241.72414 201.03264l0 0c0 -6.3434296 5.1423645 -11.485794 11.485794 -11.485794l87.20163 0c3.0462341 0 5.967682 1.2100983 8.121704 3.3641052c2.1539917 2.154007 3.3641052 5.0754547 3.3641052 8.121689l0 45.941788c0 6.3434296 -5.1423645 11.485809 -11.485809 11.485809l-87.20163 0c-6.3434296 0 -11.485794 -5.1423798 -11.485794 -11.485809z" fill-rule="evenodd"/><path stroke="#553a1f" stroke-width="3.0" stroke-linejoin="round" stroke-linecap="butt" d="m241.72414 201.03264l0 0c0 -6.3434296 5.1423645 -11.485794 11.485794 -11.485794l87.20163 0c3.0462341 0 5.967682 1.2100983 8.121704 3.3641052c2.1539917 2.154007 3.3641052 5.0754547 3.3641052 8.121689l0 45.941788c0 6.3434296 -5.1423645 11.485809 -11.485809 11.485809l-87.20163 0c-6.3434296 0 -11.485794 -5.1423798 -11.485794 -11.485809z" fill-rule="evenodd"/><path fill="#ffffff" d="m370.8183 201.02802l0 0c0 -6.3434296 5.1423645 -11.485794 11.485779 -11.485794l87.20163 0c3.0462341 0 5.967682 1.2100983 8.121704 3.3641052c2.1539917 2.154007 3.3641052 5.0754547 3.3641052 8.121689l0 45.941788c0 6.3434296 -5.1423645 11.485794 -11.485809 11.485794l-87.20163 0c-6.3434143 0 -11.485779 -5.1423645 -11.485779 -11.485794z" fill-rule="evenodd"/><path stroke="#553a1f" stroke-width="3.0" stroke-linejoin="round" stroke-linecap="butt" d="m370.8183 201.02802l0 0c0 -6.3434296 5.1423645 -11.485794 11.485779 -11.485794l87.20163 0c3.0462341 0 5.967682 1.2100983 8.121704 3.3641052c2.1539917 2.154007 3.3641052 5.0754547 3.3641052 8.121689l0 45.941788c0 6.3434296 -5.1423645 11.485794 -11.485809 11.485794l-87.20163 0c-6.3434143 0 -11.485779 -5.1423645 -11.485779 -11.485794z" fill-rule="evenodd"/><path fill="#ffffff" d="m237.93483 250.01016c-12.477875 3.8417664 -26.500336 -0.5278778 -34.33046 -10.697952c-7.830124 -10.17009 -7.5607605 -23.663528 0.65948486 -33.035294c8.22023 -9.371765 22.38916 -12.339188 34.689056 -7.2649994z" fill-rule="evenodd"/><path stroke="#ffffff" stroke-width="1.0" stroke-linejoin="round" stroke-linecap="butt" d="m237.93483 250.01016c-12.477875 3.8417664 -26.500336 -0.5278778 -34.33046 -10.697952c-7.830124 -10.17009 -7.5607605 -23.663528 0.65948486 -33.035294c8.22023 -9.371765 22.38916 -12.339188 34.689056 -7.2649994z" fill-rule="evenodd"/><path fill="#ffffff" d="m484.75668 198.08041l0 0c12.429169 -3.966385 26.52304 0.24757385 34.512848 10.319092c7.989868 10.071518 7.932129 23.550613 -0.14141846 33.00746c-8.073547 9.456833 -22.198883 12.590942 -34.589996 7.6747894z" fill-rule="evenodd"/><path stroke="#ffffff" stroke-width="1.0" stroke-linejoin="round" stroke-linecap="butt" d="m484.75668 198.08041l0 0c12.429169 -3.966385 26.52304 0.24757385 34.512848 10.319092c7.989868 10.071518 7.932129 23.550613 -0.14141846 33.00746c-8.073547 9.456833 -22.198883 12.590942 -34.589996 7.6747894z" fill-rule="evenodd"/><path fill="#ffffff" d="m304.88144 532.1225l0 0c0 -2.0883179 5.8037415 -4.0910645 16.134491 -5.567749c10.3307495 -1.4766846 24.342255 -2.3062744 38.952118 -2.3062744l0 0c30.423492 0 55.08661 3.5253296 55.08661 7.8740234l0 0c0 4.348694 -24.663116 7.8740234 -55.08661 7.8740234l0 0c-30.423492 0 -55.08661 -3.5253296 -55.08661 -7.8740234z" fill-rule="evenodd"/><path stroke="#ffffff" stroke-width="1.0" stroke-linejoin="round" stroke-linecap="butt" d="m304.88144 532.1225l0 0c0 -2.0883179 5.8037415 -4.0910645 16.134491 -5.567749c10.3307495 -1.4766846 24.342255 -2.3062744 38.952118 -2.3062744l0 0c30.423492 0 55.08661 3.5253296 55.08661 7.8740234l0 0c0 4.348694 -24.663116 7.8740234 -55.08661 7.8740234l0 0c-30.423492 0 -55.08661 -3.5253296 -55.08661 -7.8740234z" fill-rule="evenodd"/><path fill="#ffffff" d="m304.88144 433.14505l0 0c0 -58.994446 24.663116 -106.81891 55.08661 -106.81891l0 0c14.609894 0 28.621368 11.25412 38.952118 31.28653c10.3307495 20.03244 16.134491 47.20224 16.134491 75.53238l0 0c0 58.994446 -24.663116 106.81888 -55.08661 106.81888l0 0c-30.423492 0 -55.08661 -47.824432 -55.08661 -106.81888z" fill-rule="evenodd"/><path stroke="#ffffff" stroke-width="1.0" stroke-linejoin="round" stroke-linecap="butt" d="m304.88144 433.14505l0 0c0 -58.994446 24.663116 -106.81891 55.08661 -106.81891l0 0c14.609894 0 28.621368 11.25412 38.952118 31.28653c10.3307495 20.03244 16.134491 47.20224 16.134491 75.53238l0 0c0 58.994446 -24.663116 106.81888 -55.08661 106.81888l0 0c-30.423492 0 -55.08661 -47.824432 -55.08661 -106.81888z" fill-rule="evenodd"/><path fill="#ffffff" d="m304.88144 530.69556l0 -87.08664l64.75589 87.08664z" fill-rule="evenodd"/><path stroke="#ffffff" stroke-width="1.0" stroke-linejoin="round" stroke-linecap="butt" d="m304.88144 530.69556l0 -87.08664l64.75589 87.08664z" fill-rule="evenodd"/><path fill="#ffffff" d="m415.05554 533.90814l0 -90.299225l-64.75592 90.299225z" fill-rule="evenodd"/><path stroke="#ffffff" stroke-width="1.0" stroke-linejoin="round" stroke-linecap="butt" d="m415.05554 533.90814l0 -90.299225l-64.75592 90.299225z" fill-rule="evenodd"/></g></svg>